# xmcd
#
# Track frame offsets:
#  150
#  14833
#  27606
#  44060
#  60324
#  79744
#  98026
#  112487
#  137457
#  156699
#  172483
#  185579
#  202362
#
# Disc length: 2888 seconds
#
# Revision: 0
# Processed by: cddbd v1.5.1PL2 Copyright (c) Steve Scherf et al.
# Submitted via: Collectorz.com_Music_Collector 6.9
#
DISCID=d10b460d
DTITLE=Brooks and Dunn - Hillbilly Deluxe
DYEAR=2005
DGENRE=Country
TTITLE0=01 - Play Something Country
TTITLE1=02. She - s About As Lonely As I'm Going To Let Her Get
TTITLE2=03. My Heart - s Not A Hotel
TTITLE3=04. Whiskey Do My Talkin - 04. Whiskey Do My Talkin'
TTITLE4=05 - Hillbilly Deluxe
TTITLE5=06 - One More Roll of The Dice
TTITLE6=07 - Just Another Neon Night
TTITLE7=08. - Believe
TTITLE8=09 - Building Bridges
TTITLE9=10 - Her West Was Wider
TTITLE10=11 - I May Never Get Over You
TTITLE11=12 - She Likes To Get Out of Town
TTITLE12=13. - Again
EXTD=
EXTT0=
EXTT1=
EXTT2=
EXTT3=
EXTT4=
EXTT5=
EXTT6=
EXTT7=
EXTT8=
EXTT9=
EXTT10=
EXTT11=
EXTT12=
PLAYORDER=
